<?xml version="1.0" encoding="UTF-8"?>
<svg width="248px" height="26px" viewBox="0 0 248 26" version="1.1" xmlns="http://www.w3.org/2000/svg" xmlns:xlink="http://www.w3.org/1999/xlink">
    <!-- Generator: Sketch 41.2 (35397) - http://www.bohemiancoding.com/sketch -->
    <title>CLEAN CODER</title>
    <desc>Created with Sketch.</desc>
    <defs></defs>
    <g id="Page-1" stroke="none" stroke-width="1" fill="none" fill-rule="evenodd">
        <g id="Artboard" transform="translate(-75.000000, -161.000000)" fill="#FFFFFF">
            <path d="M92.8,167.188 C91.8879954,166.371996 90.9100052,165.796002 89.866,165.46 C88.8219948,165.123998 87.904004,164.956 87.112,164.956 C85.4079915,164.908 83.9500061,165.351995 82.738,166.288 C81.5259939,167.224005 80.620003,168.495992 80.02,170.104 C79.6839983,170.992004 79.4620005,172.029994 79.354,173.218 C79.2459995,174.406006 79.2819991,175.593994 79.462,176.782 C79.6420009,177.970006 79.9779975,179.061995 80.47,180.058 C80.9620025,181.054005 81.6639954,181.791998 82.576,182.272 C83.1040026,182.560001 83.7519962,182.781999 84.52,182.938 C85.2880038,183.094001 86.1339954,183.142 87.058,183.082 C87.9820046,183.022 88.9719947,182.830002 90.028,182.506 C91.0840053,182.181998 92.1519946,181.684003 93.232,181.012 L94.492,183.82 C93.3159941,184.324003 92.0680066,184.695999 90.748,184.936 C89.4279934,185.176001 88.1260064,185.296 86.842,185.296 C85.5579936,185.296 84.3340058,185.182001 83.17,184.954 C82.0059942,184.725999 80.9920043,184.384002 80.128,183.928 C78.927994,183.279997 77.9680036,182.380006 77.248,181.228 C76.5279964,180.075994 76.0180015,178.822007 75.718,177.466 C75.4179985,176.109993 75.3159995,174.724007 75.412,173.308 C75.5080005,171.891993 75.7719978,170.596006 76.204,169.42 C76.6360022,168.267994 77.2179963,167.260004 77.95,166.396 C78.6820037,165.531996 79.5159953,164.818003 80.452,164.254 C81.3880047,163.689997 82.4019945,163.270001 83.494,162.994 C84.5860055,162.717999 85.7199941,162.58 86.896,162.58 C88.2640068,162.604 89.5539939,162.747999 90.766,163.012 C91.9780061,163.276001 93.1599942,163.755997 94.312,164.452 L92.8,167.188 Z M112.321,185.368 C110.28099,185.536001 108.25301,185.59 106.237,185.53 C104.22099,185.47 102.313009,185.368001 100.513,185.224 C100.320999,181.863983 100.231,178.372018 100.243,174.748 C100.255,171.123982 100.344999,167.644017 100.513,164.308 L98.533,162.832 L104.545,161.86 C104.424999,163.468008 104.329,165.183991 104.257,167.008 C104.185,168.832009 104.137,170.673991 104.113,172.534 C104.089,174.394009 104.083,176.229991 104.095,178.042 C104.107,179.854009 104.137,181.551992 104.185,183.136 C105.385006,183.256001 106.680993,183.316 108.073,183.316 C109.465007,183.316 110.844993,183.256001 112.213,183.136 L112.321,185.368 Z M136.27,185.188 C133.053984,185.452001 129.814016,185.566 126.55,185.53 C123.285984,185.494 120.034016,185.344001 116.794,185.08 C116.505999,181.575982 116.362,177.964019 116.362,174.244 C116.362,170.523981 116.505999,166.888018 116.794,163.336 C120.034016,163.071999 123.189985,162.922 126.262,162.886 C129.334015,162.85 132.489984,162.963999 135.73,163.228 L135.262,165.532 C132.909988,165.339999 130.504012,165.232 128.044,165.208 C125.583988,165.184 123.178012,165.243999 120.826,165.388 C120.705999,166.612006 120.622,167.871994 120.574,169.168 C120.526,170.464006 120.49,171.759994 120.466,173.056 C122.41001,172.984 124.37799,172.948 126.37,172.948 C127.714007,172.9 129.027994,172.9 130.312,172.948 C131.596006,172.996 132.873994,173.056 134.146,173.128 L133.966,175.288 C132.741994,175.216 131.494006,175.156 130.222,175.108 C128.949994,175.06 127.666006,175.048 126.37,175.072 C125.385995,175.072 124.408005,175.09 123.436,175.126 C122.463995,175.162 121.474005,175.204 120.466,175.252 C120.49,176.620007 120.526,177.963993 120.574,179.284 C120.622,180.604007 120.705999,181.875994 120.826,183.1 C123.178012,183.244001 125.649987,183.304 128.242,183.28 C130.834013,183.256 133.329988,183.148001 135.73,182.956 L136.27,185.188 Z M160.183,185.656 C159.918999,184.839996 159.601002,183.934005 159.229,182.938 C158.856998,181.941995 158.431002,180.868006 157.951,179.716 C156.00699,179.788 154.05101,179.824 152.083,179.824 C150.16299,179.824 148.21901,179.788 146.251,179.716 C145.770998,180.820006 145.333002,181.869995 144.937,182.866 C144.540998,183.862005 144.187002,184.791996 143.875,185.656 L140.203,185.116 C140.923004,183.219991 141.660996,181.348009 142.417,179.5 C143.173004,177.651991 143.946996,175.864009 144.739,174.136 C145.531004,172.407991 146.334996,170.758008 147.151,169.186 C147.967004,167.613992 148.770996,166.180006 149.563,164.884 L146.935,163.444 L155.287,162.4 L154.207,164.2 C155.071004,165.472006 155.934996,166.911992 156.799,168.52 C157.663004,170.128008 158.514996,171.831991 159.355,173.632 C160.195004,175.432009 161.004996,177.28599 161.785,179.194 C162.565004,181.10201 163.278997,182.991991 163.927,184.864 L160.183,185.656 Z M152.263,167.692 C151.398996,169.276008 150.535004,170.907992 149.671,172.588 C148.806996,174.268008 147.991004,175.935992 147.223,177.592 C148.039004,177.616 148.842996,177.634 149.635,177.646 C150.427004,177.658 151.242996,177.664 152.083,177.664 C152.923004,177.664 153.756996,177.658 154.585,177.646 C155.413004,177.634 156.234996,177.616 157.051,177.592 C156.330996,175.887991 155.563004,174.184009 154.747,172.48 C153.930996,170.775991 153.103004,169.180007 152.263,167.692 Z M181.972,185.368 C181.491998,184.215994 180.934003,182.926007 180.298,181.498 C179.661997,180.069993 178.984004,178.624007 178.264,177.16 C177.543996,175.695993 176.794004,174.262007 176.014,172.858 C175.233996,171.453993 174.472004,170.200006 173.728,169.096 C173.68,170.344006 173.65,171.675993 173.638,173.092 C173.626,174.508007 173.626,175.935993 173.638,177.376 C173.65,178.816007 173.674,180.225993 173.71,181.606 C173.746,182.986007 173.8,184.263994 173.872,185.44 L169.948,185.584 C169.827999,183.927992 169.75,182.176009 169.714,180.328 C169.678,178.479991 169.666,176.626009 169.678,174.766 C169.69,172.905991 169.72,171.100009 169.768,169.348 C169.816,167.595991 169.876,165.988007 169.948,164.524 L167.968,163.048 L174.232,162.112 C174.184,162.376001 174.154,162.651999 174.142,162.94 C174.13,163.228001 174.112,163.515999 174.088,163.804 C174.856004,164.716005 175.683996,165.885993 176.572,167.314 C177.460004,168.742007 178.353996,170.277992 179.254,171.922 C180.154005,173.566008 181.029996,175.245991 181.882,176.962 C182.734004,178.678009 183.483997,180.279993 184.132,181.768 C184.156,180.519994 184.174,179.152007 184.186,177.664 C184.198,176.175993 184.192,174.664008 184.168,173.128 C184.144,171.591992 184.102,170.092007 184.042,168.628 C183.982,167.163993 183.916,165.832006 183.844,164.632 L181.54,163.444 L187.66,162.04 C187.780001,163.768009 187.876,165.63399 187.948,167.638 C188.02,169.64201 188.068,171.66399 188.092,173.704 C188.116,175.74401 188.098,177.74799 188.038,179.716 C187.978,181.68401 187.888001,183.495992 187.768,185.152 L181.972,185.368 Z M220.906,167.188 C219.993995,166.371996 219.016005,165.796002 217.972,165.46 C216.927995,165.123998 216.010004,164.956 215.218,164.956 C213.513991,164.908 212.056006,165.351995 210.844,166.288 C209.631994,167.224005 208.726003,168.495992 208.126,170.104 C207.789998,170.992004 207.568001,172.029994 207.46,173.218 C207.351999,174.406006 207.387999,175.593994 207.568,176.782 C207.748001,177.970006 208.083998,179.061995 208.576,180.058 C209.068002,181.054005 209.769995,181.791998 210.682,182.272 C211.210003,182.560001 211.857996,182.781999 212.626,182.938 C213.394004,183.094001 214.239995,183.142 215.164,183.082 C216.088005,183.022 217.077995,182.830002 218.134,182.506 C219.190005,182.181998 220.257995,181.684003 221.338,181.012 L222.598,183.82 C221.421994,184.324003 220.174007,184.695999 218.854,184.936 C217.533993,185.176001 216.232006,185.296 214.948,185.296 C213.663994,185.296 212.440006,185.182001 211.276,184.954 C210.111994,184.725999 209.098004,184.384002 208.234,183.928 C207.033994,183.279997 206.074004,182.380006 205.354,181.228 C204.633996,180.075994 204.124002,178.822007 203.824,177.466 C203.523999,176.109993 203.422,174.724007 203.518,173.308 C203.614,171.891993 203.877998,170.596006 204.31,169.42 C204.742002,168.267994 205.323996,167.260004 206.056,166.396 C206.788004,165.531996 207.621995,164.818003 208.558,164.254 C209.494005,163.689997 210.507995,163.270001 211.6,162.994 C212.692005,162.717999 213.825994,162.58 215.002,162.58 C216.370007,162.604 217.659994,162.747999 218.872,163.012 C220.084006,163.276001 221.265994,163.755997 222.418,164.452 L220.906,167.188 Z M247.447,173.668 C247.423,175.396009 247.171002,176.979993 246.691,178.42 C246.210998,179.860007 245.533004,181.107995 244.657,182.164 C243.780996,183.220005 242.707006,184.041997 241.435,184.63 C240.162994,185.218003 238.723008,185.512 237.115,185.512 C235.530992,185.512 234.103006,185.230003 232.831,184.666 C231.558994,184.101997 230.485004,183.304005 229.609,182.272 C228.732996,181.239995 228.055002,179.998007 227.575,178.546 C227.094998,177.093993 226.843,175.468009 226.819,173.668 C226.843,172.059992 227.094998,170.578007 227.575,169.222 C228.055002,167.865993 228.732996,166.690005 229.609,165.694 C230.485004,164.697995 231.558994,163.924003 232.831,163.372 C234.103006,162.819997 235.530992,162.544 237.115,162.544 C238.723008,162.544 240.162994,162.831997 241.435,163.408 C242.707006,163.984003 243.780996,164.775995 244.657,165.784 C245.533004,166.792005 246.210998,167.973993 246.691,169.33 C247.171002,170.686007 247.423,172.131992 247.447,173.668 Z M237.115,165.028 C236.034995,165.028 235.087004,165.267998 234.271,165.748 C233.454996,166.228002 232.771003,166.875996 232.219,167.692 C231.666997,168.508004 231.247001,169.437995 230.959,170.482 C230.670999,171.526005 230.515,172.611994 230.491,173.74 C230.515,174.988006 230.670999,176.175994 230.959,177.304 C231.247001,178.432006 231.660997,179.415996 232.201,180.256 C232.741003,181.096004 233.418996,181.767997 234.235,182.272 C235.051004,182.776003 236.010994,183.028 237.115,183.028 C238.219006,183.028 239.184996,182.782002 240.013,182.29 C240.841004,181.797998 241.524997,181.132004 242.065,180.292 C242.605003,179.451996 243.018999,178.480006 243.307,177.376 C243.595001,176.271994 243.751,175.108006 243.775,173.884 C243.751,172.731994 243.595001,171.628005 243.307,170.572 C243.018999,169.515995 242.605003,168.574004 242.065,167.746 C241.524997,166.917996 240.841004,166.258002 240.013,165.766 C239.184996,165.273998 238.219006,165.028 237.115,165.028 Z M251.704,163.12 L257.752,161.824 L257.644,163.048 C259.828011,162.927999 261.855991,162.981999 263.728,163.21 C265.600009,163.438001 267.219993,163.989996 268.588,164.866 C269.956007,165.742004 271.017996,167.007992 271.774,168.664 C272.530004,170.320008 272.872,172.527986 272.8,175.288 C272.752,178.432016 271.930008,180.903991 270.334,182.704 C268.737992,184.504009 266.452015,185.463999 263.476,185.584 C261.675991,185.68 259.984008,185.71 258.4,185.674 C256.815992,185.638 255.292007,185.524001 253.828,185.332 C253.707999,183.747992 253.624,182.038009 253.576,180.202 C253.528,178.365991 253.498,176.512009 253.486,174.64 C253.474,172.767991 253.486,170.938009 253.522,169.15 C253.558,167.361991 253.612,165.736007 253.684,164.272 L251.704,163.12 Z M269.164,175.144 C269.212,172.839988 268.966003,171.010007 268.426,169.654 C267.885997,168.297993 267.100005,167.284003 266.068,166.612 C265.035995,165.939997 263.794007,165.520001 262.342,165.352 C260.889993,165.183999 259.288009,165.136 257.536,165.208 C257.464,166.696007 257.404,168.237992 257.356,169.834 C257.308,171.430008 257.284,173.013992 257.284,174.586 C257.284,176.158008 257.308,177.699992 257.356,179.212 C257.404,180.724008 257.464,182.139993 257.536,183.46 C258.064003,183.508 258.549998,183.55 258.994,183.586 C259.438002,183.622 259.875998,183.64 260.308,183.64 C260.740002,183.64 261.183998,183.628 261.64,183.604 C262.096002,183.58 262.599997,183.544 263.152,183.496 C264.184005,183.424 265.077996,183.154002 265.834,182.686 C266.590004,182.217998 267.207998,181.606004 267.688,180.85 C268.168002,180.093996 268.527999,179.230005 268.768,178.258 C269.008001,177.285995 269.14,176.248006 269.164,175.144 Z M297.289,185.188 C294.072984,185.452001 290.833016,185.566 287.569,185.53 C284.304984,185.494 281.053016,185.344001 277.813,185.08 C277.524999,181.575982 277.381,177.964019 277.381,174.244 C277.381,170.523981 277.524999,166.888018 277.813,163.336 C281.053016,163.071999 284.208985,162.922 287.281,162.886 C290.353015,162.85 293.508984,162.963999 296.749,163.228 L296.281,165.532 C293.928988,165.339999 291.523012,165.232 289.063,165.208 C286.602988,165.184 284.197012,165.243999 281.845,165.388 C281.724999,166.612006 281.641,167.871994 281.593,169.168 C281.545,170.464006 281.509,171.759994 281.485,173.056 C283.42901,172.984 285.39699,172.948 287.389,172.948 C288.733007,172.9 290.046994,172.9 291.331,172.948 C292.615006,172.996 293.892994,173.056 295.165,173.128 L294.985,175.288 C293.760994,175.216 292.513006,175.156 291.241,175.108 C289.968994,175.06 288.685006,175.048 287.389,175.072 C286.404995,175.072 285.427005,175.09 284.455,175.126 C283.482995,175.162 282.493005,175.204 281.485,175.252 C281.509,176.620007 281.545,177.963993 281.593,179.284 C281.641,180.604007 281.724999,181.875994 281.845,183.1 C284.197012,183.244001 286.668987,183.304 289.261,183.28 C291.853013,183.256 294.348988,183.148001 296.749,182.956 L297.289,185.188 Z M301.33,163.156 L307.378,161.86 L307.27,162.904 C308.446006,162.808 309.627994,162.736 310.816,162.688 C312.004006,162.64 313.149994,162.652 314.254,162.724 C315.358006,162.796 316.383995,162.939999 317.332,163.156 C318.280005,163.372001 319.101997,163.713998 319.798,164.182 C320.494003,164.650002 321.039998,165.249996 321.436,165.982 C321.832002,166.714004 322.03,167.619995 322.03,168.7 C322.006,170.524009 321.502005,171.903995 320.518,172.84 C319.533995,173.776005 318.214008,174.411998 316.558,174.748 L322.606,185.44 L318.718,186.052 L312.778,175.108 L306.874,175.108 C306.874,177.004009 306.892,178.869991 306.928,180.706 C306.964,182.542009 307.018,184.323991 307.09,186.052 L303.31,185.944 C303.189999,184.359992 303.112,182.620009 303.076,180.724 C303.04,178.827991 303.028,176.90801 303.04,174.964 C303.052,173.01999 303.082,171.124009 303.13,169.276 C303.178,167.427991 303.238,165.772007 303.31,164.308 L301.33,163.156 Z M307.162,164.956 C307.09,166.252006 307.036,167.553993 307,168.862 C306.964,170.170007 306.934,171.507993 306.91,172.876 L313.426,172.876 C314.386005,172.876 315.171997,172.768001 315.784,172.552 C316.396003,172.335999 316.875998,172.030002 317.224,171.634 C317.572002,171.237998 317.811999,170.776003 317.944,170.248 C318.076001,169.719997 318.142,169.132003 318.142,168.484 C318.118,167.499995 317.740004,166.738003 317.008,166.198 C316.275996,165.657997 315.364005,165.280001 314.272,165.064 C313.179995,164.847999 311.998006,164.746 310.726,164.758 C309.453994,164.77 308.266006,164.835999 307.162,164.956 Z" id="CLEAN-CODER"></path>
        </g>
    </g>
</svg>