<?xml version="1.0" encoding="UTF-8"?>
<svg width="204px" height="42px" viewBox="0 0 204 42" version="1.1" xmlns="http://www.w3.org/2000/svg" xmlns:xlink="http://www.w3.org/1999/xlink">
    <!-- Generator: Sketch 41.2 (35397) - http://www.bohemiancoding.com/sketch -->
    <title>Group</title>
    <desc>Created with Sketch.</desc>
    <defs></defs>
    <g id="Page-1" stroke="none" stroke-width="1" fill="none" fill-rule="evenodd">
        <g id="Artboard" transform="translate(-73.000000, -98.000000)" fill="#FFFFFF">
            <g id="Group" transform="translate(73.000000, 98.000000)">
                <path d="M53.8389262,1.74765101 C54.0644307,6.44566107 54.0644307,10.9744748 53.8389262,15.3342282 C51.2832087,15.4093963 48.9060513,15.4657716 46.7073826,15.5033557 C44.5087138,15.5409398 42.3288699,15.5597315 40.1677852,15.5597315 C38.0067006,15.5597315 35.8080649,15.5409398 33.5718121,15.5033557 C31.3355593,15.4657716 28.9208183,15.4093963 26.3275168,15.3342282 C26.0644282,10.5234659 26.0644282,5.99465211 26.3275168,1.74765101 C28.9208183,1.63489877 31.3355593,1.55973173 33.5718121,1.52214765 C35.8080649,1.48456357 38.0067006,1.46577181 40.1677852,1.46577181 C42.3288699,1.46577181 44.5087138,1.48456357 46.7073826,1.52214765 C48.9060513,1.55973173 51.2832087,1.63489877 53.8389262,1.74765101 Z M24.0724832,38.2228188 C26.2147758,38.297987 28.3664321,38.3543622 30.5275168,38.3919463 C32.6886014,38.4295304 34.8590495,38.4483221 37.0389262,38.4483221 L37.0389262,31.7959732 C35.1597221,31.7959732 33.2993381,31.8147649 31.4577181,31.852349 C29.6160982,31.8899331 27.7557141,31.9463083 25.8765101,32.0214765 L25.5946309,28.6389262 C29.6912957,28.5261739 33.5060226,28.4697987 37.0389262,28.4697987 L37.0389262,22.0993289 C33.0925977,22.0993289 29.1463285,22.1557041 25.2,22.2684564 L25.2,18.9422819 C30.5369394,18.7919456 35.6201101,18.7167785 40.4496644,18.7167785 C45.2792188,18.7167785 50.0993048,18.7919456 54.9100671,18.9422819 L54.7973154,22.2684564 C50.9637392,22.1557041 47.092637,22.0993289 43.1838926,22.0993289 L43.1838926,28.4134228 C45.1382648,28.4510069 47.0362324,28.4791945 48.8778523,28.4979866 C50.7194723,28.5167786 52.5610646,28.563758 54.4026846,28.6389262 L54.1208054,32.0214765 C52.2791854,31.9838924 50.446989,31.9463089 48.6241611,31.9087248 C46.8013332,31.8711408 44.9879285,31.852349 43.1838926,31.852349 L43.1838926,38.4483221 C45.3261852,38.4483221 47.4496539,38.4295304 49.5543624,38.3919463 C51.6590709,38.3543622 53.7825396,38.297987 55.9248322,38.2228188 L55.9812081,41.6053691 C50.343596,41.7932895 44.9127778,41.8778524 39.6885906,41.8590604 C34.4644034,41.8402684 29.2590863,41.7557054 24.0724832,41.6053691 L24.0724832,38.2228188 Z M0.845637584,1.97315436 C4.30337299,1.97315436 7.86441121,1.90738321 11.5288591,1.77583893 C15.1933069,1.64429464 18.6979699,1.37181415 22.042953,0.958389262 L22.4939597,4.3409396 C20.0134104,4.67919632 17.401356,4.90469742 14.6577181,5.01744966 L14.6577181,10.0348993 C16.0859132,10.0724834 17.5328786,10.100671 18.9986577,10.1194631 C20.4644369,10.1382551 21.855027,10.1852345 23.1704698,10.2604027 L23.0013423,13.5865772 L14.6577181,13.4174497 L14.6577181,41.7744966 L8.51275168,41.7744966 L8.4,13.4174497 L0.112751678,13.5865772 L0,10.2604027 C1.27785874,10.1852345 2.64026122,10.1382551 4.08724832,10.1194631 C5.53423542,10.100671 6.97180494,10.0724834 8.4,10.0348993 L8.4,5.24295302 C7.12214126,5.2805371 5.85369757,5.29932886 4.59463087,5.29932886 L0.902013423,5.29932886 L0.845637584,1.97315436 Z M21.1973154,16.0107383 L22.8885906,41.7744966 L17.4765101,41.8308725 L15.9543624,16.0671141 L21.1973154,16.0107383 Z M7.15973154,16.0671141 L5.58120805,41.8308725 L0.338255034,41.7744966 L1.80402685,16.0107383 L7.15973154,16.0671141 Z M32.3597315,5.01744966 C32.2845634,6.22014024 32.2469799,7.42281278 32.2469799,8.62550336 C32.2469799,9.82819393 32.2845634,10.9744912 32.3597315,12.0644295 C33.9382629,12.1395977 35.328853,12.1865771 36.5315436,12.2053691 C37.7342342,12.2241612 38.9087191,12.233557 40.0550336,12.233557 C41.201348,12.233557 42.3758329,12.2241612 43.5785235,12.2053691 C44.7812141,12.1865771 46.1718042,12.1395977 47.7503356,12.0644295 C47.8255037,10.861739 47.8630872,9.67785817 47.8630872,8.51275168 C47.8630872,7.34764518 47.8255037,6.18255616 47.7503356,5.01744966 C46.1718042,4.97986558 44.7812141,4.95167795 43.5785235,4.93288591 C42.3758329,4.91409387 41.201348,4.90469799 40.0550336,4.90469799 C38.9087191,4.90469799 37.7342342,4.91409387 36.5315436,4.93288591 C35.328853,4.95167795 33.9382629,4.97986558 32.3597315,5.01744966 Z M105.775168,34.6711409 C105.88792,33.8067071 105.963087,33.0080574 106.000671,32.2751678 C106.038255,31.5422782 106.057047,30.7624202 106.057047,29.9355705 L106.057047,28.2442953 C106.057047,27.7181182 106.019463,27.1543654 105.944295,26.5530201 C102.223471,26.3650997 98.4839114,26.2523492 94.7255034,26.2147651 C94.8382556,27.3047034 94.9228185,28.4228131 94.9791946,29.5691275 C95.0355708,30.715442 95.0637584,31.7771763 95.0637584,32.7543624 C95.0637584,35.7610889 94.8382573,38.8053537 94.3872483,41.8872483 L79.447651,41.8872483 L79.5604027,38.7865772 C83.0933063,38.9369135 86.0811958,38.9369135 88.5241611,38.7865772 C88.5993292,37.771807 88.6744963,36.7664479 88.7496644,35.7704698 C88.8248326,34.7744917 88.8624161,33.7691326 88.8624161,32.7543624 C88.8624161,31.7771763 88.8436243,30.715442 88.8060403,29.5691275 C88.7684562,28.4228131 88.7120809,27.3047034 88.6369128,26.2147651 C85.4422659,26.2147651 82.2570629,26.2523486 79.0812081,26.3275168 C75.9053532,26.4026849 72.7201502,26.5154355 69.5255034,26.6657718 L69.1872483,23.2268456 C74.3362674,23.0389252 79.4288339,22.9261747 84.4651007,22.8885906 L77.4181208,16.1798658 L82.6610738,14.4322148 L91.2302013,22.4939597 L101.828859,13.4738255 C96.9053445,13.2859051 92.0570708,13.2201339 87.2838926,13.2765101 C82.5107144,13.3328862 77.6812325,13.4738244 72.795302,13.6993289 L72.457047,10.3167785 C75.3510212,10.2040263 78.2073685,10.1100675 81.0261745,10.0348993 C83.8449805,9.95973117 86.7013278,9.92214765 89.595302,9.92214765 C92.9778693,9.92214765 96.3134064,9.95973117 99.6020134,10.0348993 C102.89062,10.1100675 106.226158,10.222818 109.608725,10.3731544 L109.608725,13.2483221 L98.0516779,22.9449664 C100.344307,22.9825505 102.627505,23.0389258 104.901342,23.114094 C107.175179,23.1892621 109.458378,23.2644292 111.751007,23.3395973 C111.938927,24.4295357 112.061074,25.5194576 112.11745,26.609396 C112.173826,27.6993343 112.202013,28.8080481 112.202013,29.9355705 C112.202013,30.8000043 112.183222,31.6080499 112.145638,32.3597315 C112.108054,33.1114132 112.051678,33.9382505 111.97651,34.8402685 L105.775168,34.6711409 Z M112.483893,7.1033557 C108.462396,6.9154353 104.459751,6.77449711 100.475839,6.68053691 C96.4919264,6.58657671 92.5080736,6.53959732 88.5241611,6.53959732 C85.0288416,6.53959732 81.571158,6.57718083 78.1510067,6.65234899 C74.7308554,6.72751715 71.2731718,6.82147595 67.7778523,6.93422819 C67.8530205,8.47517549 67.9281875,9.99730792 68.0033557,11.5006711 C68.0785239,13.0040344 68.1161074,14.5449586 68.1161074,16.1234899 C68.1161074,20.2953229 67.8530228,24.6080314 67.3268456,29.061745 C66.8006685,33.5154585 65.8986641,37.753 64.6208054,41.7744966 L58.5322148,41.1543624 C59.4718168,38.1852201 60.1952995,35.1503511 60.7026846,32.0496644 C61.2100697,28.9489778 61.5483213,25.82015 61.7174497,22.6630872 C61.886578,19.5060245 61.9335574,16.3490091 61.8583893,13.1919463 C61.7832211,10.0348835 61.632887,6.89665989 61.4073826,3.77718121 C65.353711,3.66442897 69.2623968,3.55167842 73.133557,3.43892617 C77.0047173,3.32617393 80.8946113,3.23221514 84.8033557,3.15704698 L84.8033557,0.169127517 L91.004698,0.169127517 L91.004698,3.15704698 C94.6503538,3.19463106 98.2959549,3.25100634 101.941611,3.3261745 C105.587267,3.40134266 109.270451,3.53288497 112.991275,3.72080537 L112.483893,7.1033557 Z M147.986577,37.095302 L169.691275,27.285906 C164.128831,27.285906 158.585263,27.2295308 153.060403,27.1167785 C152.646978,25.2375745 152.440268,23.3771904 152.440268,21.5355705 C152.440268,19.8067028 152.646978,17.9651104 153.060403,16.0107383 C156.931563,15.9355701 160.802665,15.8885907 164.673826,15.8697987 C168.544986,15.8510066 172.416088,15.8416107 176.287248,15.8416107 C180.195993,15.8416107 184.076491,15.8510066 187.928859,15.8697987 C191.781227,15.8885907 195.661725,15.9355701 199.57047,16.0107383 C199.75839,16.9503403 199.889933,17.8805323 199.965101,18.8013423 C200.040269,19.7221523 200.077852,20.6335525 200.077852,21.5355705 C200.077852,22.5127566 200.040269,23.4617404 199.965101,24.3825503 C199.889933,25.3033603 199.75839,26.2147606 199.57047,27.1167785 C196.187903,27.1919467 192.84297,27.2389261 189.53557,27.2577181 C186.228171,27.2765102 182.90203,27.285906 179.557047,27.285906 L189.422819,32.1342282 L193.369128,27.9624161 L198.950336,29.3154362 L194.214765,34.4456376 L203.798658,39.1248322 L199.175839,41.9436242 L175.04698,30.104698 L169.183893,32.7543624 L169.183893,38.842953 C170.987928,38.9181212 172.688583,38.9369129 174.285906,38.8993289 C175.883229,38.8617448 177.583884,38.8053695 179.387919,38.7302013 L179.895302,41.8308725 C178.655027,41.9060406 177.489938,41.95302 176.4,41.9718121 C175.310062,41.9906041 174.107389,42 172.791946,42 C171.213415,42 169.634907,41.9624165 168.056376,41.8872483 C166.477844,41.8120802 164.880545,41.7369131 163.26443,41.661745 C163.189261,40.6469748 163.12349,39.6416157 163.067114,38.6456376 C163.010738,37.6496594 162.98255,36.6067169 162.98255,35.5167785 L152.55302,40.1959732 L147.986577,37.095302 Z M150.918121,3.94630872 C154.563777,3.87114056 158.209378,3.81476529 161.855034,3.77718121 C165.500689,3.73959713 169.165082,3.72080537 172.848322,3.72080537 L172.848322,3.3261745 L170.255034,1.35302013 L179.049664,0 L179.049664,3.72080537 C182.69532,3.72080537 186.331525,3.73959713 189.958389,3.77718121 C193.585253,3.81476529 197.221458,3.87114056 200.867114,3.94630872 L200.867114,7.27248322 C197.221458,7.19731506 193.585253,7.15033566 189.958389,7.13154362 C186.331525,7.11275158 182.69532,7.08456395 179.049664,7.04697987 L179.049664,10.3731544 C183.033577,10.3731544 186.998638,10.401342 190.944966,10.4577181 C194.891295,10.5140942 198.875148,10.5798654 202.896644,10.6550336 L202.840268,13.9812081 C184.875078,13.6429513 166.910157,13.6429513 148.944966,13.9812081 L148.832215,10.6550336 C152.853711,10.5798654 156.856356,10.5140942 160.840268,10.4577181 C164.824181,10.401342 168.826826,10.3731544 172.848322,10.3731544 L172.848322,7.04697987 C169.165082,7.08456395 165.500689,7.11275158 161.855034,7.13154362 C158.209378,7.15033566 154.563777,7.19731506 150.918121,7.27248322 L150.918121,3.94630872 Z M176.287248,19.1677852 C173.35569,19.1677852 170.41478,19.186577 167.46443,19.2241611 C164.514079,19.2617452 161.573169,19.2993287 158.641611,19.3369128 C158.604027,19.7127536 158.585235,20.0885887 158.585235,20.4644295 L158.585235,22.7194631 C158.585235,23.0953039 158.622818,23.4523473 158.697987,23.790604 C161.629545,23.8281881 164.561059,23.8563757 167.492617,23.8751678 C170.424176,23.8939598 173.35569,23.9033557 176.287248,23.9033557 C179.218807,23.9033557 182.150321,23.8939598 185.081879,23.8751678 C188.013437,23.8563757 190.944952,23.8281881 193.87651,23.790604 C193.914094,23.4523473 193.932886,23.0953039 193.932886,22.7194631 L193.932886,21.5355705 L193.87651,19.3369128 L185.081879,19.2241611 C182.150321,19.186577 179.218807,19.1677852 176.287248,19.1677852 Z" id="程序-袁"></path>
                <circle id="Oval" cx="132.5" cy="21.5" r="3.5"></circle>
            </g>
        </g>
    </g>
</svg>